<svg xmlns="http://www.w3.org/2000/svg" width="900" height="1260" viewBox="0 0 900 1260" role="img" aria-labelledby="title desc">
  <title id="title">Portrait crossword app UI preview</title>
  <desc id="desc">A cozy crossword app in portrait with the puzzle on top and the clues area below.</desc>
  <defs>
    <filter id="shadow" x="-20%" y="-20%" width="140%" height="140%">
      <feDropShadow dx="0" dy="12" stdDeviation="16" flood-color="#1c1a14" flood-opacity="0.16"/>
    </filter>
  </defs>
  <rect width="900" height="1260" fill="#f4f6ef"/>
  <rect x="0" y="0" width="900" height="1260" fill="#faf0dc" opacity="0.4"/>

  <g filter="url(#shadow)">
    <rect x="110" y="54" width="680" height="680" rx="10" fill="#fff7e8" stroke="#6b5c47" stroke-opacity="0.35"/>
    <g transform="translate(136 80)">
      <rect width="628" height="628" fill="#fffcf4"/>
      <g stroke="#a7a89a" stroke-width="1">
        <path d="M0 78.5H628M0 157H628M0 235.5H628M0 314H628M0 392.5H628M0 471H628M0 549.5H628"/>
        <path d="M78.5 0V628M157 0V628M235.5 0V628M314 0V628M392.5 0V628M471 0V628M549.5 0V628"/>
      </g>
      <rect x="392.5" y="0" width="235.5" height="235.5" fill="#242b2b"/>
      <rect x="0" y="392.5" width="235.5" height="235.5" fill="#242b2b"/>
      <rect x="0" y="0" width="392.5" height="78.5" fill="#e5eee4"/>
      <text x="17" y="24" font-family="Georgia, serif" font-weight="700" font-size="14" fill="#6b6352">1</text>
      <text x="118" y="60" text-anchor="middle" font-family="Georgia, serif" font-weight="700" font-size="40" fill="#1d1f1f">H</text>
      <text x="196" y="60" text-anchor="middle" font-family="Georgia, serif" font-weight="700" font-size="40" fill="#1d1f1f">E</text>
      <text x="275" y="60" text-anchor="middle" font-family="Georgia, serif" font-weight="700" font-size="40" fill="#1d1f1f">A</text>
      <text x="353" y="60" text-anchor="middle" font-family="Georgia, serif" font-weight="700" font-size="40" fill="#1d1f1f">R</text>
    </g>
  </g>

  <g filter="url(#shadow)">
    <rect x="48" y="774" width="804" height="418" rx="10" fill="#fffef6" stroke="#b3b39e" stroke-opacity="0.7"/>

    <rect x="76" y="804" width="44" height="40" rx="8" fill="#1f6e6e"/>
    <text x="98" y="830" text-anchor="middle" font-family="Arial, sans-serif" font-size="20" fill="#fffef6">⚙</text>
    <rect x="708" y="804" width="116" height="40" rx="8" fill="#f2f5e8" stroke="#b3b39e" stroke-opacity="0.7"/>
    <text x="766" y="830" text-anchor="middle" font-family="Georgia, serif" font-weight="700" font-size="17" fill="#1d1f1f">7:42</text>

    <rect x="76" y="868" width="748" height="44" rx="22" fill="#badfdb" stroke="#1f6e6e" stroke-opacity="0.2"/>
    <rect x="84" y="874" width="362" height="32" rx="16" fill="#218080"/>
    <text x="265" y="895" text-anchor="middle" font-family="Georgia, serif" font-weight="700" font-size="16" fill="#fffef6">Across</text>
    <text x="636" y="895" text-anchor="middle" font-family="Georgia, serif" font-weight="600" font-size="16" fill="#1c6b6b">Down</text>

    <g transform="translate(76 940)">
      <text x="0" y="0" font-family="Georgia, serif" font-weight="700" font-size="18" fill="#1d1f1f">Across</text>
      <rect x="0" y="18" width="430" height="34" rx="7" fill="#f0e6cc"/>
      <text x="26" y="41" text-anchor="end" font-family="Georgia, serif" font-weight="700" font-size="14" fill="#6b6352">1.</text>
      <text x="40" y="41" font-family="Georgia, serif" font-size="15" fill="#1d1f1f">It beats in your chest</text>
      <text x="26" y="82" text-anchor="end" font-family="Georgia, serif" font-weight="700" font-size="14" fill="#6b6352">3.</text>
      <text x="40" y="82" font-family="Georgia, serif" font-size="15" fill="#6b6352">General direction things are moving</text>
      <text x="0" y="132" font-family="Georgia, serif" font-weight="700" font-size="18" fill="#1d1f1f">Down</text>
      <text x="26" y="171" text-anchor="end" font-family="Georgia, serif" font-weight="700" font-size="14" fill="#6b6352">1.</text>
      <text x="40" y="171" font-family="Georgia, serif" font-size="15" fill="#6b6352">Glowing piece after a fire</text>
    </g>

    <g transform="translate(554 940)">
      <rect x="0" y="0" width="270" height="82" rx="8" fill="#e0f0e6" stroke="#1f6e6e" stroke-opacity="0.15"/>
      <text x="18" y="29" font-family="Georgia, serif" font-size="14" fill="#1f6e6e">3 Across</text>
      <text x="18" y="58" font-family="Georgia, serif" font-size="17" fill="#1d1f1f">General direction things</text>
      <text x="18" y="78" font-family="Georgia, serif" font-size="17" fill="#1d1f1f">are moving</text>
      <rect x="0" y="104" width="126" height="42" rx="8" fill="#fffef6" stroke="#1f6e6e" stroke-opacity="0.35"/>
      <text x="18" y="130" font-family="Arial, sans-serif" font-size="18" fill="#1f6e6e">‹</text>
      <text x="72" y="130" text-anchor="middle" font-family="Georgia, serif" font-size="15" fill="#1f6e6e">Previous</text>
      <rect x="144" y="104" width="126" height="42" rx="8" fill="#fffef6" stroke="#1f6e6e" stroke-opacity="0.35"/>
      <text x="193" y="130" text-anchor="middle" font-family="Georgia, serif" font-size="15" fill="#1f6e6e">Next</text>
      <text x="252" y="130" font-family="Arial, sans-serif" font-size="18" fill="#1f6e6e">›</text>
    </g>
  </g>
</svg>
